# xmcd CD database file
#
# Track frame offsets:
#	150
#	24665
#	40447
#	56014
#	70215
#	84779
#	108397
#	123887
#	140043
#	152817
#	166320
#	187450
#	206358
#	224703
#	243256
#
# Disc length: 3528 seconds
#
# Revision: 2
# Processed by: cddbd v1.5.2PL0 Copyright (c) Steve Scherf et al.
# Submitted via: CDex 1.70beta2
#
DISCID=de0dc60f
DTITLE=Full Steam Jazzband - Sing, Sing, Sing
DYEAR=2017
DGENRE=Jazz
TTITLE0=Sing, Sing, Sing
TTITLE1=Heart Of My Heart
TTITLE2=Leavin' Town
TTITLE3=Hodge Podge
TTITLE4=Hello Dolly
TTITLE5=My Gal Sal
TTITLE6=Madame Bécassine
TTITLE7=Baby Won't You Please Come Home
TTITLE8=Black Bottom
TTITLE9=The Joint Is Jumpin'
TTITLE10=Li'l Darlin'
TTITLE11=I Still Love You All
TTITLE12=I May Be Wrong
TTITLE13=Button Up Your Overcoat
TTITLE14=What A Wonderful World
EXTD=YEAR: 2017
EXTT0=
EXTT1=
EXTT2=
EXTT3=
EXTT4=
EXTT5=
EXTT6=
EXTT7=
EXTT8=
EXTT9=
EXTT10=
EXTT11=
EXTT12=
EXTT13=
EXTT14=
PLAYORDER=
